<svg xmlns="http://www.w3.org/2000/svg" viewBox="0 0 666.49 300">
    <defs>
        <style>.cls-1{fill:none;stroke:#000;stroke-miterlimit:10;stroke-width:5px;}</style>
    </defs>
    <g id="Layer_2" data-name="Layer 2">
        <g id="Layer_2-2" data-name="Layer 2">
            <path class="sign" 
            d="M182.15,50.23s-65.09,46.2-65.09,48.44.57,4.29,1.73,
            4.48c1,.17,21.12-9.84,26.46-13.09a2.9,2.9,0,0,1,4.07,1,3,
            3,0,0,1,.28.73C149,93.17,34.9,197.35,30.28,200.89s-67.13,70.76,
            12.08,21.23c46.88-34.32,52.21-42.46,52.21-42.46s75.66-64.39,
            81-66.52c4.56-3.63,9.38-10.89,10.68-12.91a.83.83,0,0,
            0-.55-1.29c-.89-.08-2.62.74-6,4.63a5.15,5.15,0,0,0-.95,1.61c-1.68,
            4.62-1.22,7.24-.52,8.65a1.61,1.61,0,0,0,2.39.67C186.27,110.89,
            210.87,89,215.35,84c5.81-.27-11.45,24.26-14.13,28.42-.06.09,0,
            .21.12.13,4.45-4.4,16.42-15.79,22.87-17.48,5,.66,4.06,6.63,3.93,7.35,
            0,0,0,.08,0,.07.91-.06,11.56-1,25.07-8.81a.33.33,0,0,1,.42.51c-4.34,
            4.52-10,11.87,2.16,3.71,1.77-3.89-2.41-5.35-2.41-5.35s7.41,3.36,4.35,
            9.74a.18.18,0,0,0,.28.22c4.24-3.52,11.13-6.4,13.45-7.31a4.27,4.27,0,
            0,1,1.87-.29c1.43.1,3.65.59,2.49,2.77-1.66,3.12-2.09,8.06.42,8.24s7.48,
            1.65,8.4,2.39,48.75-21.24,60.43-35.21S374.91,40.55,386,33c7.56-5.15,
            9.84-16.76,10.52-23.66.36-3.61-2-6.81-5-6.82-8.92,0-29.05,8.46-60.39,
            68.6-22.49,59.64-39.43,105.59-39.43,105.59s-7.59,29.12-43.81,69.57c-39.14,
            36.66-86.46,58.77-107.78,48.88-20.74-14.84,38.26-66.92,48.48-74.49,
            10.23-8.44,15.48-17.75,72.15-42.48,57-32.3,107.49-66,107.49-66S397.1,98.45,
            405.57,79c-5.84,10.19-4.08,13.68-2.33,13.39s16.36-9.6,16.36-9.6,3.79-6.41,
            7.59-.59,4.67,15.13,14.6-5.23c6.72-1.75,14.61-.59,10.23,5.82s-19,
            6.69-14.32-2.62c4.34-8.63,51.08-4,57.89-3.29a.18.18,0,0,1,0,.35c-12.57,
            4.21-172.28,57.16-205.17,64.68C256.19,149.69,31,235.37,31,235.37c1.68-7.88,
            311.23-121.92,635.39-136.66"/>
        </g>
    </g>
</svg>